<?xml version="1.0" standalone="no"?>
<!DOCTYPE svg PUBLIC "-//W3C//DTD SVG 20010904//EN"
 "http://www.w3.org/TR/2001/REC-SVG-20010904/DTD/svg10.dtd">
<svg version="1.0" xmlns="http://www.w3.org/2000/svg"
 width="512.000000pt" height="512.000000pt" viewBox="0 0 512.000000 512.000000"
 preserveAspectRatio="xMidYMid meet">
<metadata>
Created by potrace 1.11, written by Peter Selinger 2001-2013
</metadata>
<g transform="translate(0.000000,512.000000) scale(0.100000,-0.100000)"
fill="#000000" stroke="none">
<path d="M616 5089 c-139 -48 -230 -152 -257 -293 -19 -102 -341 -3969 -337
-4051 9 -164 110 -295 263 -340 31 -10 803 -79 2065 -186 1668 -141 2025 -169
2071 -161 158 28 280 148 310 306 19 101 341 3970 337 4051 -8 165 -108 294
-266 341 -42 13 -3996 355 -4092 354 -19 -1 -62 -10 -94 -21z m1499 -1044
c386 -40 480 -54 617 -89 357 -93 602 -276 740 -551 101 -201 147 -461 134
-750 -27 -568 -197 -989 -497 -1229 -235 -188 -561 -279 -939 -262 -134 6
-777 69 -785 77 -3 4 277 2715 290 2807 l6 44 47 -6 c26 -4 200 -22 387 -41z"/>
<path d="M2035 3707 c-10 -35 -225 -2161 -218 -2167 4 -4 93 -15 197 -25 358
-34 559 -1 746 120 280 181 430 570 431 1119 0 339 -65 541 -224 693 -150 145
-313 204 -662 243 -99 11 -199 22 -223 25 -29 3 -44 1 -47 -8z"/>
</g>
</svg>
